<svg width="512" height="178" viewBox="0 0 512 178" fill="none" xmlns="http://www.w3.org/2000/svg">
<rect y="0.510864" width="511.959" height="176.511" rx="12.2044" fill="#F8FAFC"/>
<path d="M90.0874 45.3176H45.6136C45.6136 45.3176 45.2023 58.3178 30.5109 62.764C30.5109 62.764 31.1791 90.2241 39.5526 105.879C49.1805 123.881 67.851 132.215 67.851 132.215C67.851 132.215 86.5204 123.881 96.151 105.879C104.524 90.2246 105.193 62.764 105.193 62.764C90.4994 58.3184 90.0887 45.3176 90.0887 45.3176H90.0874Z" fill="#0F172A"/>
<path d="M67.2389 97.0588C65.5829 97.0588 64.0949 96.7708 62.7749 96.1948C61.4789 95.5948 60.4589 94.7788 59.7149 93.7468C58.9709 92.6908 58.5869 91.4788 58.5629 90.1108H62.0549C62.1749 91.2868 62.6549 92.2828 63.4949 93.0988C64.3589 93.8908 65.6069 94.2868 67.2389 94.2868C68.7989 94.2868 70.0229 93.9028 70.9109 93.1348C71.8229 92.3428 72.2789 91.3348 72.2789 90.1108C72.2789 89.1508 72.0149 88.3708 71.4869 87.7708C70.9589 87.1708 70.2989 86.7148 69.5069 86.4028C68.7149 86.0908 67.6469 85.7548 66.3029 85.3948C64.6469 84.9628 63.3149 84.5308 62.3069 84.0988C61.3229 83.6668 60.4709 82.9948 59.7509 82.0828C59.0549 81.1468 58.7069 79.8988 58.7069 78.3388C58.7069 76.9708 59.0549 75.7588 59.7509 74.7028C60.4469 73.6468 61.4189 72.8308 62.6669 72.2548C63.9389 71.6788 65.3909 71.3908 67.0229 71.3908C69.3749 71.3908 71.2949 71.9788 72.7829 73.1548C74.2949 74.3308 75.1469 75.8908 75.3389 77.8348H71.7389C71.6189 76.8748 71.1149 76.0348 70.2269 75.3148C69.3389 74.5708 68.1629 74.1988 66.6989 74.1988C65.3309 74.1988 64.2149 74.5588 63.3509 75.2788C62.4869 75.9748 62.0549 76.9588 62.0549 78.2308C62.0549 79.1428 62.3069 79.8868 62.8109 80.4628C63.3389 81.0388 63.9749 81.4828 64.7189 81.7948C65.4869 82.0828 66.5549 82.4188 67.9229 82.8028C69.5789 83.2588 70.9109 83.7148 71.9189 84.1708C72.9269 84.6028 73.7909 85.2868 74.5109 86.2228C75.2309 87.1348 75.5909 88.3828 75.5909 89.9668C75.5909 91.1908 75.2669 92.3428 74.6189 93.4228C73.9709 94.5028 73.0109 95.3788 71.7389 96.0508C70.4669 96.7228 68.9669 97.0588 67.2389 97.0588Z" fill="#F8FAFC"/>
<path d="M149.543 123.45C145.052 123.45 141.017 122.669 137.437 121.107C133.922 119.479 131.155 117.266 129.138 114.467C127.12 111.603 126.078 108.316 126.013 104.606H135.484C135.809 107.796 137.111 110.497 139.389 112.71C141.733 114.858 145.117 115.932 149.543 115.932C153.774 115.932 157.094 114.89 159.502 112.808C161.976 110.66 163.212 107.926 163.212 104.606C163.212 102.003 162.496 99.8872 161.064 98.26C159.632 96.6327 157.842 95.396 155.694 94.5499C153.546 93.7037 150.65 92.7924 147.005 91.8161C142.514 90.6445 138.901 89.4729 136.167 88.3012C133.499 87.1296 131.188 85.3071 129.235 82.8337C127.348 80.2952 126.404 76.9105 126.404 72.6797C126.404 68.9695 127.348 65.6825 129.235 62.8185C131.123 59.9546 133.759 57.7415 137.144 56.1793C140.593 54.6172 144.531 53.8361 148.958 53.8361C155.336 53.8361 160.544 55.4308 164.579 58.6202C168.68 61.8096 170.99 66.0405 171.511 71.3128H161.748C161.422 68.7092 160.055 66.431 157.647 64.4783C155.239 62.4605 152.049 61.4516 148.079 61.4516C144.369 61.4516 141.342 62.428 138.999 64.3807C136.656 66.2683 135.484 68.937 135.484 72.3867C135.484 74.8602 136.167 76.878 137.534 78.4401C138.966 80.0023 140.691 81.2064 142.709 82.0526C144.792 82.8337 147.688 83.7449 151.398 84.7864C155.89 86.0231 159.502 87.2598 162.236 88.4965C164.97 89.6681 167.313 91.5232 169.266 94.0617C171.218 96.5351 172.195 99.9198 172.195 104.216C172.195 107.535 171.316 110.66 169.558 113.589C167.801 116.518 165.197 118.894 161.748 120.716C158.298 122.539 154.23 123.45 149.543 123.45ZM181.95 88.6918C181.95 82.0526 183.447 76.0969 186.441 70.8246C189.435 65.4872 193.503 61.3215 198.645 58.3273C203.852 55.3332 209.613 53.8361 215.927 53.8361C223.347 53.8361 229.823 55.6261 235.356 59.206C240.889 62.786 244.924 67.863 247.463 74.4371H236.821C234.933 70.3364 232.199 67.1796 228.619 64.9665C225.104 62.7534 220.874 61.6469 215.927 61.6469C211.175 61.6469 206.912 62.7534 203.137 64.9665C199.361 67.1796 196.4 70.3364 194.252 74.4371C192.104 78.4727 191.03 83.2242 191.03 88.6918C191.03 94.0942 192.104 98.8458 194.252 102.946C196.4 106.982 199.361 110.106 203.137 112.319C206.912 114.532 211.175 115.639 215.927 115.639C220.874 115.639 225.104 114.565 228.619 112.417C232.199 110.204 234.933 107.047 236.821 102.946H247.463C244.924 109.455 240.889 114.5 235.356 118.08C229.823 121.595 223.347 123.352 215.927 123.352C209.613 123.352 203.852 121.888 198.645 118.959C193.503 115.964 189.435 111.831 186.441 106.559C183.447 101.287 181.95 95.3309 181.95 88.6918ZM296.52 122.766L280.313 94.9404H269.573V122.766H260.688V54.7148H282.656C287.798 54.7148 292.127 55.5935 295.642 57.351C299.222 59.1084 301.89 61.4842 303.648 64.4783C305.405 67.4725 306.284 70.8897 306.284 74.73C306.284 79.4165 304.917 83.5497 302.183 87.1296C299.515 90.7096 295.479 93.0853 290.077 94.257L307.163 122.766H296.52ZM269.573 87.8131H282.656C287.473 87.8131 291.085 86.6414 293.494 84.2982C295.902 81.8899 297.106 78.7005 297.106 74.73C297.106 70.6944 295.902 67.5701 293.494 65.357C291.151 63.144 287.538 62.0374 282.656 62.0374H269.573V87.8131ZM328.974 61.9398V84.6887H353.773V92.0114H328.974V115.444H356.702V122.766H320.089V54.6172H356.702V61.9398H328.974ZM379.031 61.9398V84.6887H403.83V92.0114H379.031V115.444H406.759V122.766H370.146V54.6172H406.759V61.9398H379.031ZM473.707 122.766H464.822L429.088 68.579V122.766H420.203V54.6172H429.088L464.822 108.707V54.6172H473.707V122.766Z" fill="#0F172A"/>
</svg>
