<svg width="115" height="128" viewBox="0 0 115 128" fill="none" xmlns="http://www.w3.org/2000/svg">
<rect y="0.510864" width="114.682" height="126.897" rx="12.2044" fill="#0F172A"/>
<path d="M79.5765 20.5109H35.1027C35.1027 20.5109 34.6914 33.5111 20 37.9573C20 37.9573 20.6682 65.4173 29.0417 81.0724C38.6696 99.0739 57.3401 107.408 57.3401 107.408C57.3401 107.408 76.0095 99.0739 85.6401 81.0724C94.0136 65.4179 94.6818 37.9573 94.6818 37.9573C79.9885 33.5116 79.5778 20.5109 79.5778 20.5109H79.5765Z" fill="#F8FAFC"/>
<path d="M56.728 72.252C55.072 72.252 53.584 71.964 52.264 71.388C50.968 70.788 49.948 69.972 49.204 68.94C48.46 67.884 48.076 66.672 48.052 65.304H51.544C51.664 66.48 52.144 67.476 52.984 68.292C53.848 69.084 55.096 69.48 56.728 69.48C58.288 69.48 59.512 69.096 60.4 68.328C61.312 67.536 61.768 66.528 61.768 65.304C61.768 64.344 61.504 63.564 60.976 62.964C60.448 62.364 59.788 61.908 58.996 61.596C58.204 61.284 57.136 60.948 55.792 60.588C54.136 60.156 52.804 59.724 51.796 59.292C50.812 58.86 49.96 58.188 49.24 57.276C48.544 56.34 48.196 55.092 48.196 53.532C48.196 52.164 48.544 50.952 49.24 49.896C49.936 48.84 50.908 48.024 52.156 47.448C53.428 46.872 54.88 46.584 56.512 46.584C58.864 46.584 60.784 47.172 62.272 48.348C63.784 49.524 64.636 51.084 64.828 53.028H61.228C61.108 52.068 60.604 51.228 59.716 50.508C58.828 49.764 57.652 49.392 56.188 49.392C54.82 49.392 53.704 49.752 52.84 50.472C51.976 51.168 51.544 52.152 51.544 53.424C51.544 54.336 51.796 55.08 52.3 55.656C52.828 56.232 53.464 56.676 54.208 56.988C54.976 57.276 56.044 57.612 57.412 57.996C59.068 58.452 60.4 58.908 61.408 59.364C62.416 59.796 63.28 60.48 64 61.416C64.72 62.328 65.08 63.576 65.08 65.16C65.08 66.384 64.756 67.536 64.108 68.616C63.46 69.696 62.5 70.572 61.228 71.244C59.956 71.916 58.456 72.252 56.728 72.252Z" fill="#0F172A"/>
</svg>
