<svg width="512" height="177" viewBox="0 0 512 177" fill="none" xmlns="http://www.w3.org/2000/svg">
<rect width="511.959" height="176.511" rx="12.2044" fill="#0F172A"/>
<path d="M90.0874 44.8068H45.6136C45.6136 44.8068 45.2023 57.807 30.5109 62.2531C30.5109 62.2531 31.1791 89.7132 39.5526 105.368C49.1805 123.37 67.851 131.704 67.851 131.704C67.851 131.704 86.5204 123.37 96.151 105.368C104.524 89.7138 105.193 62.2531 105.193 62.2531C90.4994 57.8075 90.0887 44.8068 90.0887 44.8068H90.0874Z" fill="#F8FAFC"/>
<path d="M67.2389 96.5479C65.5829 96.5479 64.0949 96.2599 62.7749 95.6839C61.4789 95.0839 60.4589 94.2679 59.7149 93.2359C58.9709 92.1799 58.5869 90.9679 58.5629 89.5999H62.0549C62.1749 90.7759 62.6549 91.7719 63.4949 92.5879C64.3589 93.3799 65.6069 93.7759 67.2389 93.7759C68.7989 93.7759 70.0229 93.3919 70.9109 92.6239C71.8229 91.8319 72.2789 90.8239 72.2789 89.5999C72.2789 88.6399 72.0149 87.8599 71.4869 87.2599C70.9589 86.6599 70.2989 86.2039 69.5069 85.8919C68.7149 85.5799 67.6469 85.2439 66.3029 84.8839C64.6469 84.4519 63.3149 84.0199 62.3069 83.5879C61.3229 83.1559 60.4709 82.4839 59.7509 81.5719C59.0549 80.6359 58.7069 79.3879 58.7069 77.8279C58.7069 76.4599 59.0549 75.2479 59.7509 74.1919C60.4469 73.1359 61.4189 72.3199 62.6669 71.7439C63.9389 71.1679 65.3909 70.8799 67.0229 70.8799C69.3749 70.8799 71.2949 71.4679 72.7829 72.6439C74.2949 73.8199 75.1469 75.3799 75.3389 77.3239H71.7389C71.6189 76.3639 71.1149 75.5239 70.2269 74.8039C69.3389 74.0599 68.1629 73.6879 66.6989 73.6879C65.3309 73.6879 64.2149 74.0479 63.3509 74.7679C62.4869 75.4639 62.0549 76.4479 62.0549 77.7199C62.0549 78.6319 62.3069 79.3759 62.8109 79.9519C63.3389 80.5279 63.9749 80.9719 64.7189 81.2839C65.4869 81.5719 66.5549 81.9079 67.9229 82.2919C69.5789 82.7479 70.9109 83.2039 71.9189 83.6599C72.9269 84.0919 73.7909 84.7759 74.5109 85.7119C75.2309 86.6239 75.5909 87.8719 75.5909 89.4559C75.5909 90.6799 75.2669 91.8319 74.6189 92.9119C73.9709 93.9919 73.0109 94.8679 71.7389 95.5399C70.4669 96.2119 68.9669 96.5479 67.2389 96.5479Z" fill="#0F172A"/>
<path d="M149.543 122.939C145.052 122.939 141.017 122.158 137.437 120.596C133.922 118.968 131.155 116.755 129.138 113.956C127.12 111.093 126.078 107.805 126.013 104.095H135.484C135.809 107.285 137.111 109.986 139.389 112.199C141.733 114.347 145.117 115.421 149.543 115.421C153.774 115.421 157.094 114.38 159.502 112.297C161.976 110.149 163.212 107.415 163.212 104.095C163.212 101.492 162.496 99.3763 161.064 97.7491C159.632 96.1218 157.842 94.8851 155.694 94.0389C153.546 93.1928 150.65 92.2815 147.005 91.3052C142.514 90.1335 138.901 88.9619 136.167 87.7903C133.499 86.6187 131.188 84.7962 129.235 82.3228C127.348 79.7842 126.404 76.3996 126.404 72.1687C126.404 68.4586 127.348 65.1716 129.235 62.3076C131.123 59.4436 133.759 57.2306 137.144 55.6684C140.593 54.1063 144.531 53.3252 148.958 53.3252C155.336 53.3252 160.544 54.9199 164.579 58.1093C168.68 61.2987 170.99 65.5296 171.511 70.8018H161.748C161.422 68.1982 160.055 65.9201 157.647 63.9674C155.239 61.9496 152.049 60.9407 148.079 60.9407C144.369 60.9407 141.342 61.9171 138.999 63.8698C136.656 65.7574 135.484 68.4261 135.484 71.8758C135.484 74.3492 136.167 76.367 137.534 77.9292C138.966 79.4913 140.691 80.6955 142.709 81.5417C144.792 82.3228 147.688 83.234 151.398 84.2755C155.89 85.5122 159.502 86.7489 162.236 87.9856C164.97 89.1572 167.313 91.0123 169.266 93.5508C171.218 96.0242 172.195 99.4089 172.195 103.705C172.195 107.024 171.316 110.149 169.558 113.078C167.801 116.007 165.197 118.383 161.748 120.205C158.298 122.028 154.23 122.939 149.543 122.939ZM181.95 88.1809C181.95 81.5417 183.447 75.5859 186.441 70.3137C189.435 64.9763 193.503 60.8105 198.645 57.8164C203.852 54.8223 209.613 53.3252 215.927 53.3252C223.347 53.3252 229.823 55.1152 235.356 58.6951C240.889 62.2751 244.924 67.3521 247.463 73.9262H236.821C234.933 69.8255 232.199 66.6686 228.619 64.4556C225.104 62.2425 220.874 61.136 215.927 61.136C211.175 61.136 206.912 62.2425 203.137 64.4556C199.361 66.6686 196.4 69.8255 194.252 73.9262C192.104 77.9617 191.03 82.7133 191.03 88.1809C191.03 93.5833 192.104 98.3349 194.252 102.436C196.4 106.471 199.361 109.595 203.137 111.808C206.912 114.022 211.175 115.128 215.927 115.128C220.874 115.128 225.104 114.054 228.619 111.906C232.199 109.693 234.933 106.536 236.821 102.436H247.463C244.924 108.945 240.889 113.989 235.356 117.569C229.823 121.084 223.347 122.841 215.927 122.841C209.613 122.841 203.852 121.377 198.645 118.448C193.503 115.454 189.435 111.32 186.441 106.048C183.447 100.776 181.95 94.82 181.95 88.1809ZM296.52 122.255L280.313 94.4295H269.573V122.255H260.688V54.2039H282.656C287.798 54.2039 292.127 55.0826 295.642 56.84C299.222 58.5975 301.89 60.9733 303.648 63.9674C305.405 66.9615 306.284 70.3788 306.284 74.2191C306.284 78.9055 304.917 83.0387 302.183 86.6187C299.515 90.1986 295.479 92.5744 290.077 93.746L307.163 122.255H296.52ZM269.573 87.3021H282.656C287.473 87.3021 291.085 86.1305 293.494 83.7873C295.902 81.379 297.106 78.1895 297.106 74.2191C297.106 70.1835 295.902 67.0592 293.494 64.8461C291.151 62.633 287.538 61.5265 282.656 61.5265H269.573V87.3021ZM328.974 61.4289V84.1778H353.773V91.5004H328.974V114.933H356.702V122.255H320.089V54.1063H356.702V61.4289H328.974ZM379.031 61.4289V84.1778H403.83V91.5004H379.031V114.933H406.759V122.255H370.146V54.1063H406.759V61.4289H379.031ZM473.707 122.255H464.822L429.088 68.0681V122.255H420.203V54.1063H429.088L464.822 108.196V54.1063H473.707V122.255Z" fill="#F8FAFC"/>
</svg>
